<svg width="410" height="435" viewBox="0 0 410 435" fill="none" xmlns="http://www.w3.org/2000/svg">
<path d="M378.88 199.32H368.64V178.84C368.64 88.728 294.912 15 204.8 15C114.688 15 40.96 88.728 40.96 178.84V199.32H30.72C14.336 199.32 0 213.656 0 230.04V332.44C0 348.824 14.336 363.16 30.72 363.16H92.16C108.544 363.16 122.88 348.824 122.88 332.44V230.04C122.88 213.656 108.544 199.32 92.16 199.32H81.92V178.84C81.92 111.256 137.216 55.96 204.8 55.96C272.384 55.96 327.68 111.256 327.68 178.84V199.32H317.44C301.056 199.32 286.72 213.656 286.72 230.04V332.44C286.72 348.824 301.056 363.16 317.44 363.16H327.68V383.64H225.28C212.992 383.64 204.8 391.832 204.8 404.12C204.8 416.408 212.992 424.6 225.28 424.6H348.16C360.448 424.6 368.64 416.408 368.64 404.12V363.16H378.88C395.264 363.16 409.6 348.824 409.6 332.44V230.04C409.6 213.656 395.264 199.32 378.88 199.32ZM81.92 322.2H40.96V240.28H81.92V322.2ZM368.64 322.2H327.68V240.28H368.64V322.2Z" fill="black"/>
</svg>
