<svg width="314" height="351" viewBox="0 0 314 351" fill="none" xmlns="http://www.w3.org/2000/svg">
<g clip-path="url(#clip0_606_290)">
<path d="M314.152 80.608C314.152 42.72 283.432 12 245.544 12H77.608C39.72 12 9 42.72 9 80.608V214.24C9 248.032 33.576 276.192 65.832 281.824V339.68C65.832 343.776 68.392 347.872 71.976 349.92C73.512 350.944 75.56 350.944 77.096 350.944C79.656 350.944 81.704 350.432 83.752 348.896L118.056 323.808C155.432 296.672 199.464 282.336 245.544 282.336C283.432 282.336 314.152 251.616 314.152 213.728V80.608ZM291.624 214.24C291.624 239.328 271.144 259.808 246.056 259.808C195.368 259.808 146.728 275.68 105.256 305.376L88.872 317.152V271.072C88.872 264.928 83.752 259.808 77.608 259.808C52.52 259.808 32.04 239.328 32.04 214.24V80.608C32.04 55.52 52.52 35.04 77.608 35.04H246.056C271.144 35.04 291.624 55.52 291.624 80.608V214.24Z" fill="black"/>
<path d="M161.576 84.1921C142.632 84.1921 124.2 96.4801 124.2 120.032C124.2 126.176 129.32 131.296 135.464 131.296C141.608 131.296 146.728 126.176 146.728 120.032C146.728 107.744 160.04 107.232 161.576 107.232C163.112 107.232 176.424 107.744 176.424 120.032V122.592C176.424 127.712 173.864 131.808 169.256 134.368L159.016 140C153.384 143.072 150.312 148.704 150.312 154.848V164.064C150.312 170.208 155.432 175.328 161.576 175.328C167.72 175.328 172.84 170.208 172.84 164.064V158.432L180.008 154.848C191.784 148.704 198.952 136.416 198.952 123.104V120.032C198.952 96.4801 180.008 84.1921 161.576 84.1921Z" fill="black"/>
<path d="M161.576 188.128C143.144 188.128 143.144 216.8 161.576 216.8C180.008 216.8 180.008 188.128 161.576 188.128Z" fill="black"/>
</g>
<defs>
<clipPath id="clip0_606_290">
<rect width="314" height="351" fill="white"/>
</clipPath>
</defs>
</svg>
