<svg width="365" height="371" viewBox="0 0 365 371" fill="none" xmlns="http://www.w3.org/2000/svg">
<path d="M346.76 155.72C343.518 151.474 339.342 148.032 334.556 145.66C329.77 143.288 324.502 142.049 319.16 142.04H207.16L218.92 90.92C221.02 81.9912 221.05 72.7005 219.009 63.7583C216.967 54.816 212.908 46.459 207.141 39.3261C201.375 32.1932 194.054 26.4733 185.737 22.6037C177.421 18.7341 168.331 16.8174 159.16 17C156.872 17.0019 154.631 17.6582 152.704 18.8913C150.776 20.1245 149.241 21.8832 148.28 23.96L93.72 142.04H42.6C38.7548 141.998 34.939 142.713 31.3704 144.146C27.8018 145.578 24.5503 147.7 21.8017 150.389C19.053 153.078 16.861 156.283 15.3508 159.819C13.8406 163.355 13.0418 167.155 13 171V332.04C13.0418 335.885 13.8406 339.684 15.3508 343.221C16.861 346.757 19.053 349.962 21.8017 352.651C24.5503 355.34 27.8018 357.462 31.3704 358.894C34.939 360.327 38.7548 361.042 42.6 361H266.6C275.826 360.961 284.8 357.987 292.221 352.506C299.643 347.026 305.128 339.326 307.88 330.52L352.12 186.92C353.77 181.668 354.145 176.098 353.213 170.672C352.28 165.246 350.068 160.12 346.76 155.72ZM37 331.72V171C37.0408 170.306 37.2181 169.627 37.5219 169.002C37.8256 168.377 38.2498 167.818 38.7701 167.357C39.2904 166.896 39.8965 166.543 40.5537 166.317C41.211 166.091 41.9063 165.997 42.6 166.04H89V337H42.6C41.9063 337.043 41.211 336.949 40.5537 336.723C39.8965 336.497 39.2904 336.144 38.7701 335.683C38.2498 335.222 37.8256 334.663 37.5219 334.038C37.2181 333.413 37.0408 332.734 37 332.04V331.72ZM285 323.08C283.765 327.001 281.319 330.43 278.013 332.874C274.707 335.317 270.711 336.65 266.6 336.68H113V157.64L166.52 41.64C171.418 42.4015 176.102 44.1773 180.274 46.8537C184.445 49.5301 188.012 53.048 190.746 57.1824C193.48 61.3168 195.32 65.9764 196.149 70.863C196.978 75.7495 196.777 80.7554 195.56 85.56L180.44 151.32C180.046 153.078 180.051 154.902 180.453 156.658C180.855 158.414 181.645 160.058 182.765 161.469C183.885 162.88 185.306 164.023 186.925 164.814C188.543 165.605 190.319 166.024 192.12 166.04H319.16C320.833 166.042 322.483 166.437 323.976 167.191C325.47 167.945 326.766 169.039 327.762 170.384C328.757 171.729 329.424 173.288 329.708 174.937C329.993 176.586 329.887 178.279 329.4 179.88L321.8 204.52H259.08C255.897 204.52 252.845 205.784 250.595 208.035C248.344 210.285 247.08 213.337 247.08 216.52C247.08 219.703 248.344 222.755 250.595 225.005C252.845 227.256 255.897 228.52 259.08 228.52H314.44L299.48 277H259.08C255.897 277 252.845 278.264 250.595 280.515C248.344 282.765 247.08 285.817 247.08 289C247.08 292.183 248.344 295.235 250.595 297.485C252.845 299.736 255.897 301 259.08 301H292.12L285 323.08Z" fill="black"/>
</svg>
