<svg width="410" height="400" viewBox="0 0 410 400" fill="none" xmlns="http://www.w3.org/2000/svg">
<path d="M294.6 400H115.4C58.9392 400 13 354.061 13 297.6V118.4C13 61.9392 58.9392 16 115.4 16H294.6C351.061 16 397 61.9392 397 118.4V297.6C397 354.061 351.061 400 294.6 400ZM115.4 41.6C73.0448 41.6 38.6 76.0448 38.6 118.4V297.6C38.6 339.955 73.0448 374.4 115.4 374.4H294.6C336.955 374.4 371.4 339.955 371.4 297.6V118.4C371.4 76.0448 336.955 41.6 294.6 41.6H115.4Z" fill="black"/>
<path d="M260.745 387.2H235.145C235.145 295.45 160.495 220.8 68.7445 220.8C55.2405 220.8 41.8133 222.413 28.8469 225.613L22.7285 200.755C37.6917 197.069 53.1669 195.2 68.7445 195.2C174.613 195.2 260.745 281.331 260.745 387.2Z" fill="black"/>
<path d="M216.277 277.286L197.064 260.378C233.532 218.957 286.076 195.2 341.218 195.2C356.783 195.2 372.258 197.069 387.234 200.755L381.103 225.613C368.136 222.413 354.709 220.8 341.218 220.8C293.436 220.8 247.88 241.382 216.277 277.286Z" fill="black"/>
<path d="M205 184.576C176.763 184.576 153.8 161.613 153.8 133.376C153.8 105.139 176.763 82.176 205 82.176C233.237 82.176 256.2 105.139 256.2 133.376C256.2 161.613 233.237 184.576 205 184.576ZM205 107.776C190.881 107.776 179.4 119.258 179.4 133.376C179.4 147.494 190.881 158.976 205 158.976C219.118 158.976 230.6 147.494 230.6 133.376C230.6 119.258 219.118 107.776 205 107.776Z" fill="black"/>
</svg>
