<svg width="349" height="347" viewBox="0 0 349 347" fill="none" xmlns="http://www.w3.org/2000/svg">
<g clip-path="url(#clip0_606_256)">
<path d="M178.26 15.15C176.913 13.803 175.314 12.7344 173.555 12.0054C171.795 11.2764 169.909 10.9011 168.005 10.9011C166.1 10.9011 164.214 11.2764 162.454 12.0054C160.695 12.7344 159.096 13.803 157.75 15.15L4.13965 168.75C1.42 171.468 -0.108735 175.155 -0.110352 179V332.6C-0.110352 336.446 1.41733 340.134 4.1366 342.853C6.85588 345.572 10.544 347.1 14.3896 347.1H117.84C121.685 347.1 125.373 345.572 128.093 342.853C130.812 340.134 132.34 336.446 132.34 332.6V274.6C132.331 267.543 134.417 260.642 138.334 254.771C142.251 248.901 147.822 244.325 154.341 241.623C160.861 238.921 168.035 238.215 174.957 239.594C181.878 240.973 188.234 244.376 193.22 249.37C196.543 252.675 199.179 256.607 200.972 260.938C202.766 265.269 203.683 269.912 203.67 274.6V332.6C203.67 336.446 205.197 340.134 207.917 342.853C210.636 345.572 214.324 347.1 218.17 347.1H321.61C325.455 347.1 329.143 345.572 331.863 342.853C334.582 340.134 336.11 336.446 336.11 332.6V179C336.108 175.155 334.579 171.468 331.86 168.75L178.26 15.15ZM307.11 318.15H232.66V274.62C232.651 260.452 227.997 246.678 219.41 235.409C210.823 224.14 198.777 215.997 185.12 212.23C171.019 208.393 156.035 209.435 142.601 215.188C129.167 220.941 118.073 231.066 111.12 243.92C106.598 252.271 103.975 261.518 103.44 271C103.373 272.213 103.34 273.43 103.34 274.65V318.1H28.8896V185L168 45.91L307.11 185V318.15Z" fill="black"/>
</g>
<defs>
<clipPath id="clip0_606_256">
<rect width="349" height="347" fill="white"/>
</clipPath>
</defs>
</svg>
