<svg width="410" height="389" viewBox="0 0 410 389" fill="none" xmlns="http://www.w3.org/2000/svg">
<path d="M205 389C99.1184 389 13 302.869 13 197C13 91.1312 99.1184 5 205 5C310.882 5 397 91.1312 397 197C397 302.869 310.869 389 205 389ZM205 30.6C113.25 30.6 38.6 105.25 38.6 197C38.6 288.75 113.25 363.4 205 363.4C296.75 363.4 371.4 288.75 371.4 197C371.4 105.25 296.75 30.6 205 30.6Z" fill="black"/>
<path d="M205 389C155.976 389 119.01 306.466 119.01 197C119.01 87.5344 155.976 5 205 5C254.024 5 290.991 87.5344 290.991 197C290.991 306.466 254.024 389 205 389ZM205 30.6C176.495 30.6 144.61 101.768 144.61 197C144.61 292.232 176.495 363.4 205 363.4C233.506 363.4 265.391 292.232 265.391 197C265.391 101.768 233.493 30.6 205 30.6Z" fill="black"/>
<path d="M384.2 184.2H25.7998V209.8H384.2V184.2Z" fill="black"/>
</svg>
