<svg width="417" height="213" viewBox="0 0 417 213" fill="none" xmlns="http://www.w3.org/2000/svg">
<path d="M369.664 118.784L316.928 163.84C312.832 167.117 313.344 172.442 317.44 175.309C319.488 176.947 322.048 177.357 324.608 177.357C327.168 177.357 330.24 176.538 332.288 174.899L407.04 110.592L332.288 45.8751C328.192 42.5983 322.048 42.1887 317.952 45.4655C313.856 48.7423 313.344 53.6575 317.44 56.9343L370.176 101.99H271.36V118.374H369.664V118.784Z" fill="black"/>
<path d="M56.832 212.992H214.528C245.76 212.992 271.36 192.512 271.36 167.526V118.784H143.36C137.728 118.784 133.12 115.098 133.12 110.592C133.12 106.086 137.728 102.4 143.36 102.4H271.36V45.4656C271.36 20.48 245.76 0 214.528 0H56.832C25.6 0 0 20.48 0 45.4656V167.526C0 192.512 25.6 212.992 56.832 212.992Z" fill="black"/>
</svg>
