<svg width="387" height="371" viewBox="0 0 387 371" fill="none" xmlns="http://www.w3.org/2000/svg">
<path d="M103 355.8H307.8C324.768 355.78 341.034 349.03 353.032 337.032C365.03 325.034 371.78 308.768 371.8 291.8V176.6C371.8 173.205 370.451 169.949 368.051 167.549C365.651 165.149 362.395 163.8 359 163.8H295V35.8C295 32.4052 293.651 29.1495 291.251 26.749C288.851 24.3486 285.595 23 282.2 23H51.8C48.4052 23 45.1495 24.3486 42.749 26.749C40.3486 29.1495 39 32.4052 39 35.8V291.8C39.0203 308.768 45.7697 325.034 57.7676 337.032C69.7655 349.03 86.0324 355.78 103 355.8ZM346.2 189.4V291.8C346.2 301.984 342.154 311.751 334.953 318.953C327.752 326.154 317.984 330.2 307.8 330.2H295V189.4H346.2ZM64.6 48.6H269.4V330.2H103C92.8157 330.2 83.0485 326.154 75.8471 318.953C68.6457 311.751 64.6 301.984 64.6 291.8V48.6Z" fill="black"/>
<path d="M102.999 176.6H230.999C234.394 176.6 237.65 175.252 240.05 172.851C242.451 170.451 243.799 167.195 243.799 163.8V87.0002C243.799 83.6054 242.451 80.3497 240.05 77.9492C237.65 75.5488 234.394 74.2002 230.999 74.2002H102.999C99.6044 74.2002 96.3487 75.5488 93.9483 77.9492C91.5478 80.3497 90.1992 83.6054 90.1992 87.0002V163.8C90.1992 167.195 91.5478 170.451 93.9483 172.851C96.3487 175.252 99.6044 176.6 102.999 176.6ZM115.799 99.8002H218.199V151H115.799V99.8002Z" fill="black"/>
<path d="M102.999 240.6H177.662C181.056 240.6 184.312 239.251 186.713 236.851C189.113 234.451 190.462 231.195 190.462 227.8C190.462 224.405 189.113 221.149 186.713 218.749C184.312 216.349 181.056 215 177.662 215H102.999C99.6044 215 96.3487 216.349 93.9483 218.749C91.5478 221.149 90.1992 224.405 90.1992 227.8C90.1992 231.195 91.5478 234.451 93.9483 236.851C96.3487 239.251 99.6044 240.6 102.999 240.6Z" fill="black"/>
<path d="M102.999 291.8H230.999C234.394 291.8 237.65 290.452 240.05 288.051C242.451 285.651 243.799 282.395 243.799 279C243.799 275.605 242.451 272.35 240.05 269.949C237.65 267.549 234.394 266.2 230.999 266.2H102.999C99.6044 266.2 96.3487 267.549 93.9483 269.949C91.5478 272.35 90.1992 275.605 90.1992 279C90.1992 282.395 91.5478 285.651 93.9483 288.051C96.3487 290.452 99.6044 291.8 102.999 291.8Z" fill="black"/>
</svg>
