<svg width="410" height="441" viewBox="0 0 410 441" fill="none" xmlns="http://www.w3.org/2000/svg">
<path fill-rule="evenodd" clip-rule="evenodd" d="M204.8 427.6C91.6921 427.6 0 335.908 0 222.8C0 109.692 91.6921 18 204.8 18C317.908 18 409.6 109.692 409.6 222.8C409.6 335.908 317.908 427.6 204.8 427.6ZM204.8 393.467C299.057 393.467 375.467 317.057 375.467 222.8C375.467 128.543 299.057 52.1333 204.8 52.1333C110.543 52.1333 34.1333 128.543 34.1333 222.8C34.1333 317.057 110.543 393.467 204.8 393.467ZM187.733 107.628C187.733 100.543 193.524 94.8 200.54 94.8H209.06C216.133 94.8 221.867 100.478 221.867 107.628V252.639C221.867 259.724 216.076 265.467 209.06 265.467H200.54C193.467 265.467 187.733 259.788 187.733 252.639V107.628ZM204.8 350.8C190.662 350.8 179.2 339.339 179.2 325.2C179.2 311.062 190.662 299.6 204.8 299.6C218.939 299.6 230.4 311.062 230.4 325.2C230.4 339.339 218.939 350.8 204.8 350.8Z" fill="black"/>
</svg>
