<svg width="410" height="406" viewBox="0 0 410 406" fill="none" xmlns="http://www.w3.org/2000/svg">
<path d="M204.8 3.68652C93.7985 3.68652 3.68652 93.7985 3.68652 204.8C3.68652 315.802 93.7985 405.914 204.8 405.914C315.802 405.914 405.914 315.802 405.914 204.8C405.914 93.7985 315.802 3.68652 204.8 3.68652ZM204.8 371.917C112.64 371.917 37.6833 296.96 37.6833 204.8C37.6833 112.64 112.64 37.6833 204.8 37.6833C296.96 37.6833 371.917 112.64 371.917 204.8C371.917 296.96 296.96 371.917 204.8 371.917Z" fill="black"/>
<path d="M169.984 274.022C172.442 275.251 174.9 275.661 177.357 275.661C180.224 275.661 183.501 274.841 185.959 272.793L268.698 216.269C272.794 213.401 275.252 208.486 275.252 203.571C275.252 198.656 272.794 193.741 268.288 190.873L185.549 135.987C180.634 132.71 174.9 132.71 169.575 135.168C164.66 138.035 161.383 142.95 161.383 148.685V260.096C161.792 266.24 164.66 271.565 169.984 274.022Z" fill="black"/>
</svg>
